<?xml version="1.0" standalone="no"?>
<!DOCTYPE svg PUBLIC "-//W3C//DTD SVG 20010904//EN"
 "http://www.w3.org/TR/2001/REC-SVG-20010904/DTD/svg10.dtd">
<svg version="1.0" xmlns="http://www.w3.org/2000/svg"
 width="57.000000pt" height="66.000000pt" viewBox="0 0 57.000000 66.000000"
 preserveAspectRatio="xMidYMid meet">
<metadata>
Created by potrace 1.13, written by Peter Selinger 2001-2015
</metadata>
<g transform="translate(0.000000,66.000000) scale(0.100000,-0.100000)"
fill="#000000" stroke="none">
<path d="M17 642 c-15 -16 -17 -50 -17 -268 0 -200 3 -254 14 -270 13 -18 30
-19 216 -22 171 -3 205 -1 226 13 l24 15 0 260 c0 222 -2 261 -16 274 -13 14
-48 16 -223 16 -189 0 -209 -2 -224 -18z m431 -266 c2 -193 -1 -251 -10 -258
-15 -9 -369 -11 -392 -2 -14 5 -16 37 -16 253 0 136 3 251 7 255 4 3 97 5 207
4 l201 -3 3 -249z" fill="#FFF"/>
<path d="M87 524 c-19 -20 4 -24 124 -24 100 0 130 3 127 13 -5 13 -238 24
-251 11z" fill="#FFF"/>
<path d="M87 384 c-20 -20 6 -24 154 -24 124 0 160 3 157 13 -4 9 -45 13 -154
15 -83 1 -153 -1 -157 -4z" fill="#FFF"/>
<path d="M87 244 c-20 -20 6 -24 154 -24 124 0 160 3 157 13 -4 9 -45 13 -154
15 -83 1 -153 -1 -157 -4z" fill="#FFF"/>
<path d="M540 283 c0 -165 -3 -232 -12 -241 -8 -8 -64 -12 -185 -12 -147 0
-173 -2 -173 -15 0 -13 26 -15 175 -15 174 0 176 0 201 25 l24 24 -2 227 c-2
171 -6 228 -15 232 -10 3 -13 -47 -13 -225z" fill="#FFF"/>
</g>
</svg>
