<?xml version="1.0" encoding="utf-8"?>
<!-- Svg Vector Icons : http://www.sfont.cn -->
<!DOCTYPE svg PUBLIC "-//W3C//DTD SVG 1.1//EN" "http://www.w3.org/Graphics/SVG/1.1/DTD/svg11.dtd">
<svg version="1.1" xmlns="http://www.w3.org/2000/svg" xmlns:xlink="http://www.w3.org/1999/xlink" x="0px" y="0px" viewBox="0 0 1000 1000" enable-background="new 0 0 1000 1000" xml:space="preserve">
<metadata> Svg Vector Icons : http://www.sfont.cn </metadata>
<g><g><path d="M157.7,450.8c-2.9-6.9-4.4-16.4-4.4-28.4c0-7.3,2-16.2,6-26.8c4-10.6,8.4-18.8,13.1-24.6c-0.4-8,1-17.7,4.1-29c3.1-11.3,7.2-19.1,12.3-23.5c0-50.7,16.9-103.3,50.6-157.8c33.7-54.5,73.4-92.7,118.9-114.6C409,22,468.1,10,535.5,10c48.5,0,97,10,145.5,30.1c17.9,7.7,34.3,16.4,49.2,26.3c14.9,9.8,27.9,20.1,38.8,30.6c10.9,10.6,21,23,30.1,37.2c9.1,14.2,16.8,27.7,23,40.5c6.2,12.8,12.1,28.2,17.8,46.2c5.7,18,10.3,34.4,13.9,48.9c3.6,14.6,7.7,32.4,12,53.6l0.5,2.7c20.1,30.3,30.1,57.6,30.1,82c0,5.1-1.6,12.4-4.9,21.9c-3.3,9.5-4.9,16.4-4.9,20.8c0,0.4,0.3,1,0.8,1.9c0.5,0.9,1.2,1.8,1.9,2.7c0.7,0.9,1.1,1.5,1.1,1.9c28.1,41.6,50,80.7,65.9,117.3c15.9,36.6,23.8,74.6,23.8,114c0,15.7-3.6,33.9-10.7,54.7c-7.1,20.8-17.2,31.2-30.4,31.2c-3.3,0-6.8-1.4-10.7-4.1s-7.3-5.9-10.4-9.6c-3.1-3.6-6.6-8.4-10.4-14.2c-3.8-5.8-6.7-10.7-8.8-14.5s-4.5-8.6-7.4-14.2c-2.9-5.7-4.6-8.8-4.9-9.6c-0.4-0.4-0.9-0.5-1.6-0.5l-2.7,2.2c-21.5,56.1-45.6,96.8-72.2,122c7.3,7.3,18.5,14.3,33.6,21.1c15.1,6.7,27.7,14.3,37.7,22.7c10,8.4,16.5,20.2,19.4,35.5c-0.7,1.5-1.5,4.4-2.2,8.8c-0.7,4.4-2,7.7-3.8,9.8c-23.3,35.4-78.4,53-165.2,53c-19.3,0-39.5-1.6-60.4-4.9c-21-3.3-38.8-6.9-53.6-10.9c-14.8-4-33.8-9.5-57.1-16.4c-5.5-1.8-9.7-3.1-12.6-3.8c-5.1-1.5-13.5-2.3-25.2-2.5c-11.7-0.2-19-0.5-21.9-0.8c-14.9,16.4-38.2,28.3-69.7,35.5S366.9,990,337,990c-12.8,0-25.3-0.3-37.7-0.8c-12.4-0.5-29.3-2.2-50.9-4.9c-21.5-2.7-39.9-6.5-55.2-11.2s-28.9-12-40.7-21.9c-11.8-9.8-17.8-21.5-17.8-35c0-14.6,1.8-25.4,5.5-32.5c3.6-7.1,11.1-16,22.4-26.5c4-0.7,11.4-3.1,22.1-7.1s19.8-6.2,27.1-6.6c1.5,0,4-0.4,7.7-1.1c0.7-0.7,1.1-1.5,1.1-2.2l-1.1-1.6c-17.5-4-37.2-23.2-59.1-57.7c-21.9-34.5-35.2-63-39.9-85.6l-2.7-1.6c-1.5,0-3.6,3.6-6.6,10.9c-6.6,14.9-16.5,28.5-29.8,40.7c-13.3,12.2-27.4,19-42.4,20.5h-0.5c-1.5,0-2.6-0.8-3.3-2.5c-0.7-1.6-1.6-2.6-2.7-3c-8.4-19.7-12.6-37.9-12.6-54.7C19.8,605.4,65.8,520.4,157.7,450.8L157.7,450.8z" fill="#6656FF"/></g></g>
</svg>