<?xml version="1.0" encoding="utf-8"?>
<!-- Svg Vector Icons : http://www.sfont.cn -->
<!DOCTYPE svg PUBLIC "-//W3C//DTD SVG 1.1//EN" "http://www.w3.org/Graphics/SVG/1.1/DTD/svg11.dtd">
<svg version="1.1" xmlns="http://www.w3.org/2000/svg" xmlns:xlink="http://www.w3.org/1999/xlink" x="0px" y="0px" viewBox="0 0 1000 1000" enable-background="new 0 0 1000 1000" xml:space="preserve">
<metadata> Svg Vector Icons : http://www.sfont.cn </metadata>
<g><g transform="translate(0.000000,520.000000) scale(0.100000,-0.100000)"><path d="M7034.4,4157.5c-131.8-13.8-315.7-55.2-369.3-81.2c-116.5-59.8-197.7-196.2-197.7-331c0-111.9,29.1-177.8,113.4-260.5c122.6-119.5,185.4-130.3,484.3-82.8c544.1,84.3,1167.8-133.3,1564.7-545.6c467.4-487.4,628.4-1149.4,442.9-1819.2c-36.8-130.3-38.3-185.4-7.7-269.7c98.1-278.9,470.5-343.3,646.7-110.4c133.3,173.2,223.8,800,174.7,1206.1c-52.1,423-191.6,801.5-421.5,1147.9C9039,3648.7,8373.8,4056.4,7601.4,4151.4C7480.3,4166.7,7153.9,4169.8,7034.4,4157.5z" fill="#FFF"/><path d="M4022.8,3038.8c-608.4-78.2-1341-464.4-2076.6-1092.7c-205.4-174.7-646.8-620.7-813.8-819.9C592.9,482.4,266.5-127.5,142.3-719.1c-50.6-243.7-56.7-608.4-13.8-806.1c122.6-564,473.6-1036,1059-1428.4c599.2-401.5,1356.3-660.5,2283.5-781.6c308-39.8,1192.3-39.8,1501.9,0c1077.4,139.5,2004.6,505.8,2697.3,1068.2c392.3,317.2,718.8,734.1,864.4,1109.6c88.9,228.3,113.4,370.9,105.7,613c-6.1,174.7-12.3,217.6-53.6,334.1c-147.1,421.5-522.6,746.4-1086.6,941c-90.4,32.2-177.8,70.5-193.1,85.8c-38.3,38.3-35.2,98.1,16.9,237.6c65.9,180.8,95,332.6,95,495c1.5,320.3-128.7,524.1-416.8,657.5c-139.5,64.4-301.9,93.5-528.7,93.5c-355.6,0-724.9-78.2-1192.4-251.3c-409.2-153.3-452.1-139.5-377,121.1c194.6,674.3,6.1,1149.4-501.2,1256.7C4306.4,3048,4131.7,3052.6,4022.8,3038.8z M4620.5,674C5809.8,572.8,6720.2,1.2,6928.6-775.8c47.5-177.8,49-470.5,0-649.8c-167.1-628.4-752.5-1181.6-1596.9-1508.1c-795.4-306.5-1751.7-367.8-2559.4-162.5c-518,131.8-1020.7,407.7-1296.6,712.7c-292.7,323.4-436.8,728-389.3,1095.8c78.2,613,531.8,1155.6,1281.2,1535.6C3028.2,582,3855.8,738.4,4620.5,674z" fill="#CC002B"/><path d="M3636.6-129.1C2970-256.3,2433.6-722.2,2297.2-1295.4c-46-196.2-36.8-469,23-643.7c226.8-668.2,1013-1023.8,1810-819.9c594.6,151.7,1075.9,606.9,1203.1,1137.2c41.4,171.7,41.4,410.7,0,570.1c-107.3,423-475.1,767.8-957.9,898.1C4217.5-110.7,3805.2-96.9,3636.6-129.1z M4235.9-1027.2c52.1-19.9,88.9-79.7,88.9-147.1c0-104.2-111.9-205.4-228.4-205.4c-58.2,0-78.2,9.2-121.1,52.1c-61.3,61.3-69,127.2-21.5,205.4C4012.1-1028.7,4131.7-987.3,4235.9-1027.2z M3566.1-1264.7c104.2-30.7,219.2-134.9,265.1-240.6c95-222.2-38.3-519.5-292.7-642.1c-282-137.9-582.4-62.9-706.5,176.2c-50.6,96.6-47.5,265.1,6.1,380.1c70.5,150.2,216.1,274.3,387.7,328C3310.2-1235.6,3472.6-1237.1,3566.1-1264.7z" fill="#CC002B"/><path d="M7111,2825.7c-108.8-21.5-185.4-58.2-234.5-111.9c-144.1-159.4-104.2-404.6,81.2-504.2c65.9-33.7,78.2-35.3,245.2-26.1c151.7,7.7,190,4.6,275.9-21.5c324.9-101.2,507.3-424.5,423-746.4c-13.8-52.1-24.5-118-24.5-147.1c0-79.7,67.4-200.8,139.5-251.3c131.8-90.4,343.3-59.8,438.3,64.4c88.9,116.5,134.9,452.1,96.5,691.2C8475,2255.6,8121,2652.6,7645.9,2789C7534,2821.1,7207.5,2844.1,7111,2825.7z" fill="#FFF"/></g></g>
</svg>