<?xml version="1.0" encoding="utf-8"?>
<!-- Svg Vector Icons : http://www.sfont.cn -->
<!DOCTYPE svg PUBLIC "-//W3C//DTD SVG 1.1//EN" "http://www.w3.org/Graphics/SVG/1.1/DTD/svg11.dtd">
<svg version="1.1" xmlns="http://www.w3.org/2000/svg" xmlns:xlink="http://www.w3.org/1999/xlink" x="0px" y="0px" viewBox="0 0 1000 1000" enable-background="new 0 0 1000 1000" xml:space="preserve">
<metadata> Svg Vector Icons : http://www.sfont.cn </metadata>
<g><path d="M990,615.1C990,477.3,852.1,365,697.3,365c-164,0-293.1,112.3-293.1,250.1c0,138,129.1,250.1,293.1,250.1c34.3,0,68.9-8.6,103.4-17.3l94.5,51.8l-26-86.2C938.5,761.7,990,692.8,990,615.1z M602.2,572c-17.2,0-34.4-17.1-34.4-34.5c0-17.2,17.3-34.4,34.4-34.4c26.1,0,43.1,17.3,43.1,34.4C645.3,554.9,628.3,572,602.2,572z M791.8,572c-17,0-34.2-17.1-34.2-34.5c0-17.2,17.2-34.4,34.2-34.4c25.8,0,43.1,17.3,43.1,34.4C834.9,554.9,817.6,572,791.8,572z M354.7,100.3C165.2,100.3,10,229.4,10,393.4C10,488,61.7,565.8,147.9,626l-34.4,103.7l120.5-60.4c43.1,8.5,77.7,17.3,120.7,17.3c10.8,0,21.5-0.5,32.2-1.4c-6.8-23.1-10.6-47.2-10.6-72.2c0-150.6,129.3-272.8,293-272.8c11.2,0,22.2,0.8,33.2,2C672.5,203.4,524.1,100.3,354.7,100.3z M242.7,332.9c-25.8,0-51.9-17.3-51.9-43.1c0-26,26.1-43,51.9-43c25.9,0,43,17,43,43C285.7,315.7,268.5,332.9,242.7,332.9z M483.9,332.9c-25.8,0-51.8-17.3-51.8-43.1c0-26,26-43,51.8-43c25.9,0,43.1,17,43.1,43C527,315.7,509.8,332.9,483.9,332.9z" fill="#00AC2B"/></g>
</svg>