<?xml version="1.0" encoding="utf-8"?>
<!-- Svg Vector Icons : http://www.sfont.cn -->
<!DOCTYPE svg PUBLIC "-//W3C//DTD SVG 1.1//EN" "http://www.w3.org/Graphics/SVG/1.1/DTD/svg11.dtd">
<svg version="1.1" xmlns="http://www.w3.org/2000/svg" xmlns:xlink="http://www.w3.org/1999/xlink" x="0px" y="0px" viewBox="0 0 1000 1000" enable-background="new 0 0 1000 1000" xml:space="preserve">
<metadata> Svg Vector Icons : http://www.sfont.cn </metadata>
<g><path d="M957.6,322.2L621.7,657.8l340.2,0.4C962,658.2,1027.9,503.2,957.6,322.2" fill="#00AC81"/><path d="M698.2,51.7v474.7l240.6-237.3C938.9,289.1,875.9,130.1,698.2,51.7" fill="#00AC81"/><path d="M322.6,41.5l335.6,335.6l0.4-341.9C658.7,35.2,503.7-28.7,322.6,41.5" fill="#00AC81"/><path d="M50.2,305.5h475L279.6,61.6C279.6,61.6,128.6,127.9,50.2,305.5" fill="#00AC81"/><path d="M43.3,681.1l335.9-335.6l-343.5-0.4C35.7,345.1-26.9,500.1,43.3,681.1" fill="#00AC81"/><path d="M306,951.6V476.9L62.1,720.8C62.1,720.8,128.3,873.2,306,951.6" fill="#00AC81"/><path d="M681.6,958.5L346,622.9l-0.4,341.9C345.5,964.8,500.6,1028.7,681.6,958.5" fill="#00AC81"/><path d="M950.7,697.8h-475l239,240.6C714.7,938.4,872.3,875.4,950.7,697.8" fill="#00AC81"/></g>
</svg>