<?xml version="1.0" encoding="utf-8"?>
<!-- Svg Vector Icons : http://www.sfont.cn -->
<!DOCTYPE svg PUBLIC "-//W3C//DTD SVG 1.1//EN" "http://www.w3.org/Graphics/SVG/1.1/DTD/svg11.dtd">
<svg version="1.1" xmlns="http://www.w3.org/2000/svg" xmlns:xlink="http://www.w3.org/1999/xlink" x="0px" y="0px" viewBox="0 0 1000 1000" enable-background="new 0 0 1000 1000" xml:space="preserve">
<metadata> Svg Vector Icons : http://www.sfont.cn </metadata>
<g><path d="M500,10C229.4,10,10,229.4,10,500c0,270.6,219.4,490,490,490c270.7,0,490-219.4,490-490C990,229.4,770.6,10,500,10 M815.1,434.1L675,562.3c-7.3,6.8-8.8,10.1-7.3,19.5l3,16.3c-67.8-0.9-143.2-3.9-204.3-12.3c-5-0.7-0.4-3.4-0.4-3.4l198.8-134.8c0,0,7.9-4.8-0.6-6c-10.9-1.7-33.6-4.8-33.6-4.8c-40.2-4.8-84.4-7.5-130.7-7.5c-78.6,0-150.9,7.6-208.3,20.5c2,0,3.9,0,5.9,0c85,0,175.4,3.2,257,15.6c5.1,0.7-0.1,3.8-0.1,3.8L356,607.3c0,0-8.3,4.8-0.7,6c20.5,2.8,42.2,5,64.8,6.5l0.1-0.1c25.7,1.8,52.4,2.7,80,2.7c74.7,0,155.3-8.1,213.8-21.9l4-0.8c-9.8,7.8-26.2,14.6-43.2,20.3l28.3,152c3.1,16.3-6.4,22.9-21.2,14.6l-165.6-93.5c-11.3-6.9-22-6.7-33.6,0.4l-164.7,93c-14.7,8.3-24.2,1.8-21.1-14.6l37-190.5c1.9-8.6,1.8-11.2-5-17.4L184.7,434.4c-12.3-11.5-8.5-22.2,8.4-23.9l184-20.2c14.3-1.3,17-3.5,22.9-13.3l86.6-176.3c7.4-14.9,19.6-14.9,27,0L594.8,377c4.5,11.6,7.8,13.8,22.3,15.1L807,410.5C823.9,412.2,827.6,422.8,815.1,434.1" fill="#FF962A"/></g>
</svg>