<?xml version="1.0" encoding="utf-8"?>
<!-- Svg Vector Icons : http://www.sfont.cn -->
<!DOCTYPE svg PUBLIC "-//W3C//DTD SVG 1.1//EN" "http://www.w3.org/Graphics/SVG/1.1/DTD/svg11.dtd">
<svg version="1.1" xmlns="http://www.w3.org/2000/svg" xmlns:xlink="http://www.w3.org/1999/xlink" x="0px" y="0px" viewBox="0 0 1000 1000" enable-background="new 0 0 1000 1000" xml:space="preserve">
<metadata> Svg Vector Icons : http://www.sfont.cn </metadata>
<g><path d="M498.3,135c-152.3,0-275.8,121-275.8,270.2c0,149.2,123.5,270.2,275.8,270.2c152.3,0,275.8-121,275.8-270.2C774.1,255.9,650.7,135,498.3,135L498.3,135L498.3,135z M179.8,508.9V259.4c-3.5,0-7,0.1-10.4,0.4C226,137.1,351.9,51.6,498.3,51.6c146.4,0,272.4,85.5,328.8,208.2c-3.4-0.2-6.9-0.4-10.4-0.4v249.5c70.3,0,127.4-55.9,127.4-124.7c0-46.8-26.3-87.5-65.2-108.9C824.3,120.9,674.7,10,498.3,10c-176.4,0-325.9,110.9-380.7,265.3c-38.9,21.3-65.2,62.1-65.2,108.8C52.4,453,109.5,508.9,179.8,508.9L179.8,508.9L179.8,508.9L179.8,508.9z M773.5,651.9c-72.1,65.9-168.8,106.3-275.2,106.3c-106.2,0-202.8-40.2-274.8-105.9C94.6,717.2,10,832.9,10,990h980C990,832.6,903.8,716.8,773.5,651.9L773.5,651.9z" fill="#FFF"/></g>
</svg>