<?xml version="1.0" encoding="utf-8"?>
<!-- Svg Vector Icons : http://www.sfont.cn -->
<!DOCTYPE svg PUBLIC "-//W3C//DTD SVG 1.1//EN" "http://www.w3.org/Graphics/SVG/1.1/DTD/svg11.dtd">
<svg version="1.1" xmlns="http://www.w3.org/2000/svg" xmlns:xlink="http://www.w3.org/1999/xlink" x="0px" y="0px" viewBox="0 0 1000 1000" enable-background="new 0 0 1000 1000" xml:space="preserve">
<metadata> Svg Vector Icons : http://www.sfont.cn </metadata>
<g><path d="M183.1,645.5c0,8.6-6.9,15.5-15.5,15.5H25.5C16.9,661,10,654,10,645.5V349.9c0-8.6,6.9-15.5,15.5-15.5h142.1c8.6,0,15.5,6.9,15.5,15.5L183.1,645.5L183.1,645.5z" fill="#D84C29"/><path d="M564.2,812V189.2c0-31.4-22.5-33.9-37.9-26.2L235,327.5c-10.7,5.8-15.5,11.6-15.5,22.5v302.9c0,8.6,6.8,13.6,15.5,18.2l291.4,167.2C541.1,842.6,564.2,844.5,564.2,812z" fill="#D84C29"/><path d="M783.5,817.3c-11.8,0-23.2-6.4-29.1-17.6c-8.4-16-2.2-35.9,13.8-44.3c96.3-50.6,156.2-149.5,156.2-258.2c0-107.9-59.2-206.5-154.6-257.3c-16-8.5-22.1-28.4-13.5-44.4c8.5-16,28.4-22.1,44.4-13.5C917.5,244.2,990,365,990,497.2c0,66.3-18.3,131.1-53,187.3c-33.7,54.6-81.5,99.2-138.3,129C793.8,816.1,788.6,817.3,783.5,817.3z" fill="#D84C29"/><path d="M723.8,705.2c-11.9,0-23.3-6.4-29.1-17.7c-8.4-16.1-2.1-35.9,14-44.3c54.7-28.4,88.7-84.4,88.7-146c0-60.9-33.4-116.5-87.2-145.2c-16-8.5-22.1-28.4-13.5-44.4c8.5-16,28.4-22.1,44.4-13.5c75.3,40.1,122,117.9,122,203.1c0,86.2-47.6,164.5-124.1,204.3C734.1,704,728.9,705.2,723.8,705.2z" fill="#D84C29"/></g>
</svg>