<?xml version="1.0" encoding="utf-8"?>
<!-- Svg Vector Icons : http://www.sfont.cn -->
<!DOCTYPE svg PUBLIC "-//W3C//DTD SVG 1.1//EN" "http://www.w3.org/Graphics/SVG/1.1/DTD/svg11.dtd">
<svg version="1.1" xmlns="http://www.w3.org/2000/svg" xmlns:xlink="http://www.w3.org/1999/xlink" x="0px" y="0px" viewBox="0 0 1000 1000" enable-background="new 0 0 1000 1000" xml:space="preserve">
<metadata> Svg Vector Icons : http://www.sfont.cn </metadata>
<g><path d="M801.2,304.8c-18.1-79.3-51.7-135.8-100.8-169.4C651.3,101.8,587.1,85,507.8,85c-56,0-104.3,11.2-144.8,33.6c-40.5,22.4-73.9,52.6-100.2,90.5c-26.3,37.9-45.7,81.7-58.2,131.2c-12.5,49.6-18.7,101.9-18.7,157.1c0,51.7,5.4,102.6,16.2,152.6c10.8,50,28.7,94.6,53.7,133.8c25,39.2,58.6,70.9,100.8,95c42.2,24.1,95.2,36.2,159,36.2c39.6,0,75.8-6.5,108.6-19.4c32.8-12.9,61.4-30.8,86-53.7c24.6-22.8,45.3-49.8,62.1-80.8c16.8-31,29.5-65.1,38.1-102.1h91.8c-10.3,44.8-25.4,87.3-45.3,127.3c-19.8,40.1-45.9,75.2-78.2,105.4c-32.3,30.2-71.5,54.1-117.6,71.8C614.9,981.2,560.8,990,498.7,990c-71.5,0-132.7-13.1-183.6-39.4c-50.9-26.3-92.4-61.8-124.8-106.7c-32.3-44.8-55.8-96.7-70.5-155.8s-22-121.7-22-188.1c0-88.8,11-164.2,33-226.3c22-62.1,52.4-112.7,91.1-151.9c38.8-39.2,84.5-67.7,137-85.3C411.7,18.8,469,10,531,10c47.4,0,91.6,6.2,132.5,18.7C704.5,41.2,740.7,60,772.2,85c31.5,25,57.3,55.8,77.6,92.4c20.3,36.6,34.3,79.1,42,127.3H801.2z"/></g>
</svg>