<?xml version="1.0" encoding="utf-8"?>
<!-- Svg Vector Icons : http://www.sfont.cn -->
<!DOCTYPE svg PUBLIC "-//W3C//DTD SVG 1.1//EN" "http://www.w3.org/Graphics/SVG/1.1/DTD/svg11.dtd">
<svg version="1.1" xmlns="http://www.w3.org/2000/svg" xmlns:xlink="http://www.w3.org/1999/xlink" x="0px" y="0px" viewBox="0 0 1000 1000" enable-background="new 0 0 1000 1000" xml:space="preserve">
<metadata> Svg Vector Icons : http://www.sfont.cn </metadata>
<g><path d="M594.1,500l376.4-376.5c26-26,26-68.1,0-94.1c-26-26-68.1-26-94.1,0L500,405.9L123.6,29.5c-26-26-68.1-26-94.1,0c-26,26-26,68.1,0,94.1L405.9,500L29.5,876.4c-26,26-26,68.1,0,94.1c13,13,30,19.5,47,19.5c17,0,34.1-6.5,47-19.5L500,594.1l376.4,376.5c13,13,30,19.5,47,19.5s34.1-6.5,47-19.5c26-26,26-68.1,0-94.1L594.1,500z"/></g>
</svg>