<?xml version="1.0" encoding="utf-8"?>
<!-- Svg Vector Icons : http://www.sfont.cn -->
<!DOCTYPE svg PUBLIC "-//W3C//DTD SVG 1.1//EN" "http://www.w3.org/Graphics/SVG/1.1/DTD/svg11.dtd">
<svg version="1.1" xmlns="http://www.w3.org/2000/svg" xmlns:xlink="http://www.w3.org/1999/xlink" x="0px" y="0px" viewBox="0 0 1000 1000" enable-background="new 0 0 1000 1000" xml:space="preserve">
<metadata> Svg Vector Icons : http://www.sfont.cn </metadata>
<g><path d="M12,509.9c4,9.7,13.4,15.9,23.8,15.9h928.4c14.2,0,25.8-11.6,25.8-25.8c0-14.2-11.5-25.8-25.8-25.8H98.1L518.2,53.7c10.1-10.1,10.1-26.4,0-36.5c-10.1-10.1-26.4-10.1-36.5,0L17.6,481.8C10.2,489.1,8,500.2,12,509.9L12,509.9L12,509.9L12,509.9L12,509.9z M23.7,492.4c-10.1,10.1-10.1,21.5,0,31.6l458.1,458.9c5,5,11.6,7.6,18.2,7.6c6.6,0,13.2-2.5,18.2-7.6c10.1-10.1,10.1-26.4-1.3-39.3L58.9,489.6C50.1,482.3,33.8,482.3,23.7,492.4L23.7,492.4L23.7,492.4L23.7,492.4L23.7,492.4z" stroke-width="30px"/></g>
</svg>