<?xml version="1.0" encoding="utf-8"?>
<!-- Svg Vector Icons : http://www.sfont.cn -->
<!DOCTYPE svg PUBLIC "-//W3C//DTD SVG 1.1//EN" "http://www.w3.org/Graphics/SVG/1.1/DTD/svg11.dtd">
<svg version="1.1" xmlns="http://www.w3.org/2000/svg" xmlns:xlink="http://www.w3.org/1999/xlink" x="0px" y="0px" viewBox="0 0 1000 1000" enable-background="new 0 0 1000 1000" xml:space="preserve">
<metadata> Svg Vector Icons : http://www.sfont.cn </metadata>
<g><path d="M876.9,349.2h75.4V85.4c0-20.8-16.9-37.7-37.7-37.7H650.8v75.4h226.2L876.9,349.2L876.9,349.2z M123.1,123.1h226.2V47.7H85.4c-20.8,0-37.7,16.9-37.7,37.7v263.8h75.4V123.1L123.1,123.1z M123.1,650.8H47.7v263.8c0,20.8,16.9,37.7,37.7,37.7h263.8v-75.4H123.1V650.8L123.1,650.8z M876.9,876.9H650.8v75.4h263.8c20.8,0,37.7-16.9,37.7-37.7V650.8h-75.4V876.9L876.9,876.9z M952.3,462.3H47.7C26.9,462.3,10,479.2,10,500c0,20.8,16.9,37.7,37.7,37.7h904.6c20.8,0,37.7-16.9,37.7-37.7C990,479.2,973.1,462.3,952.3,462.3L952.3,462.3z" fill="#D7C45F"/></g>
</svg>