<?xml version="1.0" encoding="utf-8"?>
<!-- Svg Vector Icons : http://www.sfont.cn -->
<!DOCTYPE svg PUBLIC "-//W3C//DTD SVG 1.1//EN" "http://www.w3.org/Graphics/SVG/1.1/DTD/svg11.dtd">
<svg version="1.1" xmlns="http://www.w3.org/2000/svg" xmlns:xlink="http://www.w3.org/1999/xlink" x="0px" y="0px" viewBox="0 0 1000 1000" enable-background="new 0 0 1000 1000" xml:space="preserve">
<metadata> Svg Vector Icons : http://www.sfont.cn </metadata>
<g><path d="M500,10C229.4,10,10,229.4,10,500s219.4,490,490,490s490-219.4,490-490C990,229.4,770.6,10,500,10z M500,944.1C254.8,944.1,55.9,745.2,55.9,500C55.9,254.8,254.8,55.9,500,55.9c245.2,0,444.1,198.8,444.1,444.1S745.2,944.1,500,944.1z" fill="#54D781"/><path d="M700.6,339.2L424.8,615.1L299.4,489.7c-9-9-23.5-9-32.5,0c-9,9-9,23.5,0,32.5l138.7,138.7c6.1,6.1,14.7,8,22.5,5.9c6.1,0.1,12.2-2.1,16.8-6.7l288.3-288.3c9-9,9-23.5,0-32.5S709.6,330.2,700.6,339.2z" fill="#54D781"/></g>
</svg>