<?xml version="1.0" encoding="utf-8"?>
<!-- Svg Vector Icons : http://www.sfont.cn -->
<!DOCTYPE svg PUBLIC "-//W3C//DTD SVG 1.1//EN" "http://www.w3.org/Graphics/SVG/1.1/DTD/svg11.dtd">
<svg version="1.1" xmlns="http://www.w3.org/2000/svg" xmlns:xlink="http://www.w3.org/1999/xlink" x="0px" y="0px" viewBox="0 0 1000 1000" enable-background="new 0 0 1000 1000" xml:space="preserve">
<metadata> Svg Vector Icons : http://www.sfont.cn </metadata>
<g><path d="M500,309.4c-106.5,0-193.1,85.5-193.1,190.6c0,105.1,86.6,190.6,193.1,190.6c106.5,0,193.1-85.5,193.1-190.6C693.1,394.9,606.5,309.4,500,309.4z M500,636.1c-76,0-137.9-61.1-137.9-136.1c0-75.1,61.9-136.1,137.9-136.1c76,0,137.9,61.1,137.9,136.1C637.9,575,576.1,636.1,500,636.1z M913.8,500c0-47.6,18.1-93.3,51-128.6l11-11.8l-5.2-15.2c-21.2-62.3-54.4-119-98.9-168.6l-10.8-12l-15.9,3.5c-46.9,10.3-96.7,2.8-138.1-20.8C665,122.5,634,84.1,619.4,38.2l-4.9-15.4l-16-3.2c-64.9-12.9-132.2-12.9-197.1,0l-16,3.2l-4.9,15.4C366,84.1,335,122.5,293.1,146.3c-41.4,23.6-91.2,31.1-138.1,20.8l-15.9-3.5l-10.8,12C83.9,225.3,50.6,282,29.4,344.3l-5.2,15.2l11,11.8c32.8,35.3,50.9,81,50.9,128.6c0,47.6-18.1,93.3-50.9,128.6l-11,11.8l5.2,15.2c21.1,62.2,54.4,119,98.9,168.6l10.8,12l15.9-3.5c46.9-10.3,96.7-2.8,138.1,20.8c41.9,23.9,73,62.3,87.5,108.1l4.9,15.4l16,3.2c32.5,6.5,65.6,9.7,98.5,9.7c32.9,0,66-3.3,98.5-9.7l16-3.2l4.9-15.4c14.6-45.8,45.6-84.3,87.5-108.1c41.4-23.6,91.2-31,138.1-20.8l15.9,3.5l10.8-12c44.5-49.6,77.8-106.3,98.9-168.6l5.2-15.2l-11-11.8C931.9,593.2,913.8,547.6,913.8,500z M913.1,652.7c-17.1,44.9-41.5,86.5-72.7,123.8c-55.4-8.3-112.7,2.3-161.1,29.9c-49,27.9-86.5,71.3-106.9,123.2c-47.9,7.8-96.8,7.8-144.7,0c-20.5-52-57.9-95.3-106.9-123.2c-48.4-27.6-105.6-38.1-161-29.9c-31.3-37.3-55.7-78.9-72.7-123.9c35.2-43.4,54.5-97,54.5-152.7c0-55.7-19.2-109.3-54.4-152.7c17.1-44.9,41.5-86.5,72.7-123.8c55.5,8.3,112.7-2.3,161-29.9c49-27.9,86.5-71.3,106.9-123.2c47.9-7.8,96.8-7.8,144.7,0c20.5,52,57.9,95.3,106.9,123.2c48.4,27.5,105.6,38.1,161.1,29.9c31.2,37.3,55.6,78.9,72.7,123.8c-35.2,43.4-54.5,97-54.5,152.8C858.6,555.7,877.8,609.3,913.1,652.7z" fill='#FFF'/></g>
</svg>